<?xml version="1.0" encoding="us-ascii" standalone="no"?><svg xmlns="http://www.w3.org/2000/svg" xmlns:xlink="http://www.w3.org/1999/xlink" contentStyleType="text/css" height="311px" preserveAspectRatio="none" style="width:343px;height:311px;background:#FFFFFF;" version="1.1" viewBox="0 0 343 311" width="343px" zoomAndPan="magnify"><defs/><g><g id="marp"><rect fill="#F1F1F1" height="64.2344" rx="12.5" ry="12.5" style="stroke:#181818;stroke-width:0.5;" width="226" x="58.5" y="7"/><line style="stroke:#181818;stroke-width:0.5;" x1="58.5" x2="284.5" y1="33.2969" y2="33.2969"/><text fill="#000000" font-family="sans-serif" font-size="14" lengthAdjust="spacing" textLength="38" x="152.5" y="24.9951">marp</text><text fill="#000000" font-family="sans-serif" font-size="12" lengthAdjust="spacing" textLength="112" x="63.5" y="49.4355">command-line tool</text><text fill="#000000" font-family="sans-serif" font-size="12" lengthAdjust="spacing" textLength="206" x="63.5" y="63.4043">entrypoint of the marp ecosystem</text></g><g id="marpcore"><rect fill="#F1F1F1" height="64.2344" rx="12.5" ry="12.5" style="stroke:#181818;stroke-width:0.5;" width="187" x="78" y="131"/><line style="stroke:#181818;stroke-width:0.5;" x1="78" x2="265" y1="157.2969" y2="157.2969"/><text fill="#000000" font-family="sans-serif" font-size="14" lengthAdjust="spacing" textLength="70" x="136.5" y="148.9951">marpcore</text><text fill="#000000" font-family="sans-serif" font-size="12" lengthAdjust="spacing" textLength="167" x="83" y="173.4355">the library invoked by marp</text><text fill="#000000" font-family="sans-serif" font-size="12" lengthAdjust="spacing" textLength="150" x="83" y="187.4043">a wrapper around marpit</text></g><g id="marpit"><rect fill="#F1F1F1" height="50.2656" rx="12.5" ry="12.5" style="stroke:#181818;stroke-width:0.5;" width="329" x="7" y="255"/><line style="stroke:#181818;stroke-width:0.5;" x1="7" x2="336" y1="281.2969" y2="281.2969"/><text fill="#000000" font-family="sans-serif" font-size="14" lengthAdjust="spacing" textLength="49" x="147" y="272.9951">marpit</text><text fill="#000000" font-family="sans-serif" font-size="12" lengthAdjust="spacing" textLength="309" x="12" y="297.4355">a library for generating static HTML from Markdown</text></g><!--link marp to marpcore--><g id="link_marp_marpcore"><path d="M171.5,71.101 C171.5,87.736 171.5,108.311 171.5,125.677 " fill="none" id="marp-to-marpcore" style="stroke:#181818;stroke-width:1.0;"/><polygon fill="#181818" points="171.5,130.955,175.5,121.955,171.5,125.955,167.5,121.955,171.5,130.955" style="stroke:#181818;stroke-width:1.0;"/></g><!--link marpcore to marpit--><g id="link_marpcore_marpit"><path d="M171.5,195.121 C171.5,212.1204 171.5,233.0477 171.5,249.7463 " fill="none" id="marpcore-to-marpit" style="stroke:#181818;stroke-width:1.0;"/><polygon fill="#181818" points="171.5,254.7838,175.5,245.7838,171.5,249.7838,167.5,245.7838,171.5,254.7838" style="stroke:#181818;stroke-width:1.0;"/></g><!--SRC=[JOr13eCm40FllC8Vu0CSUkwXtFg1a2mqWkn6oxOelsy90lLaoHxRoMdku2Kbnw5T8XDCP6bIzObDIvR81XbXByBkWxoiPJLAJUMyA7KrNUAWJWiYVsIcWA7KmX_biAdBcHHEvSsXvj6EeMWxS8wCefY8IPr5dh3QJptkp_w1KIMXTpe7sHZDqKRRtd0-NPUN6-qB]--></g></svg>